<svg width="130" height="130" viewBox="0 0 130 130" fill="none" xmlns="http://www.w3.org/2000/svg">
<g clip-path="url(#clip0_203_392)">
<path d="M25.6777 11.5V119" stroke="#D85C1F" stroke-width="13"/>
<path d="M19.1759 112.998L84.1759 112.998C112.177 108.5 116.177 70 93.6771 61.5" stroke="#D85C1F" stroke-width="13"/>
<path d="M51.6788 11C51.6788 22 51.1781 42.5001 53.1777 51.5001C55.1774 60.5001 63.1777 69.3499 73.6781 72.5001C88.6777 77.0001 98.1781 66.0001 98.1781 66.0001" stroke="#D85C1F" stroke-width="13"/>
<path d="M45.1777 17.0549C55.9097 17.0548 75.9102 16.5623 84.6909 18.5292C93.4715 20.4961 104.104 27.1717 107.178 37.5C111.568 52.2539 103.178 63.5 103.178 63.5" stroke="#D85C1F" stroke-width="13"/>
<path d="M80.1777 46L104.678 70.5" stroke="#D85C1F" stroke-width="13"/>
</g>
<defs>
<clipPath id="clip0_203_392">
<rect width="130" height="130" fill="white"/>
</clipPath>
</defs>
</svg>
