<svg width="16" height="16" viewBox="0 0 16 16" fill="none" xmlns="http://www.w3.org/2000/svg">
<path d="M1 7.99825C1 4.69762 1 3.04801 2.0248 2.02226C2.8935 1.15334 4.2109 1.02101 6.6 1M15 7.99825C15 4.69762 15 3.04801 13.9745 2.02226C13.1065 1.15334 11.7891 1.02101 9.4 1" stroke="#515E68" stroke-linecap="round"/>
<path d="M6.6 14.9999C4.64 14.9999 3.66 14.9999 2.911 14.6183C2.25246 14.2827 1.71705 13.7471 1.3815 13.0884C1 12.3393 1 11.359 1 9.39852C1 7.43803 1 6.45778 1.3815 5.7086C1.71705 5.04989 2.25246 4.51435 2.911 4.17871C3.66 3.79712 4.64 3.79712 6.6 3.79712H9.4C11.36 3.79712 12.34 3.79712 13.089 4.17871C13.7475 4.51435 14.2829 5.04989 14.6185 5.7086C15 6.45778 15 7.43803 15 9.39852C15 11.359 15 12.3393 14.6185 13.0884C14.2829 13.7471 13.7475 14.2827 13.089 14.6183C12.34 14.9999 11.36 14.9999 9.4 14.9999" stroke="#515E68" stroke-linecap="round"/>
<path d="M8 7.2981V11.4991M8 11.4991L9.75 9.74871M8 11.4991L6.25 9.74871" stroke="#515E68" stroke-linecap="round" stroke-linejoin="round"/>
</svg>
