<svg width="16" height="16" viewBox="0 0 16 16" fill="none" xmlns="http://www.w3.org/2000/svg">
<g clip-path="url(#clip0_237_86)">
<path d="M1.33301 8.33325C1.33301 5.03345 1.33301 3.38355 2.35781 2.35805C3.38401 1.33325 5.03321 1.33325 8.33301 1.33325C11.6328 1.33325 13.2827 1.33325 14.3075 2.35805C15.333 3.38425 15.333 5.03345 15.333 8.33325C15.333 11.6331 15.333 13.283 14.3075 14.3078C13.2834 15.3333 11.6328 15.3333 8.33301 15.3333C5.03321 15.3333 3.38331 15.3333 2.35781 14.3078C1.33301 13.2837 1.33301 11.6331 1.33301 8.33325Z" stroke="#888888"/>
<path d="M5.88281 8.68325L7.28281 10.0833L10.7828 6.58325" stroke="#888888" stroke-linecap="round" stroke-linejoin="round"/>
</g>
<defs>
<clipPath id="clip0_237_86">
<rect width="16" height="16" fill="white"/>
</clipPath>
</defs>
</svg>
