<svg width="16" height="16" viewBox="0 0 16 16" fill="none" xmlns="http://www.w3.org/2000/svg">
<path d="M1 8.33325C1 5.03345 1 3.38355 2.0248 2.35805C3.051 1.33325 4.7002 1.33325 8 1.33325C11.2998 1.33325 12.9497 1.33325 13.9745 2.35805C15 3.38425 15 5.03345 15 8.33325C15 11.6331 15 13.283 13.9745 14.3078C12.9504 15.3333 11.2998 15.3333 8 15.3333C4.7002 15.3333 3.0503 15.3333 2.0248 14.3078C1 13.2837 1 11.6331 1 8.33325Z" stroke="#888888"/>
<path d="M10 6L6 10M6 6L10 10" stroke="#888888" stroke-linecap="round"/>
</svg>
