<svg width="22" height="22" viewBox="0 0 22 22" fill="none" xmlns="http://www.w3.org/2000/svg">
<path opacity="0.6" d="M10.6949 1.83325H7.63872C6.82829 1.83325 6.05106 2.15519 5.478 2.72825C4.90495 3.3013 4.58301 4.07854 4.58301 4.88896C4.58301 5.69938 4.90495 6.47662 5.478 7.04967C6.05106 7.62273 6.82829 7.94467 7.63872 7.94467H10.6949V1.83325Z" fill="#515E68"/>
<path opacity="0.4" d="M10.6954 7.94482H7.63923C6.82893 7.94482 6.05182 8.26672 5.47885 8.83969C4.90588 9.41266 4.58398 10.1898 4.58398 11.0001C4.58398 11.8104 4.90588 12.5875 5.47885 13.1605C6.05182 13.7334 6.82893 14.0553 7.63923 14.0553H10.6954V7.94482Z" fill="#515E68"/>
<path d="M16.8048 11.0005C16.8048 11.811 16.4828 12.5882 15.9098 13.1612C15.3367 13.7343 14.5595 14.0562 13.7491 14.0562C12.9386 14.0562 12.1614 13.7343 11.5884 13.1612C11.0153 12.5882 10.6934 11.811 10.6934 11.0005C10.6934 10.1901 11.0153 9.41288 11.5884 8.83982C12.1614 8.26676 12.9386 7.94482 13.7491 7.94482C14.5595 7.94482 15.3367 8.26676 15.9098 8.83982C16.4828 9.41288 16.8048 10.1901 16.8048 11.0005Z" fill="#515E68"/>
<path opacity="0.2" d="M7.63832 14.0561H10.6945V17.1113C10.6943 17.7155 10.515 18.3061 10.1792 18.8084C9.84342 19.3107 9.36624 19.7022 8.80801 19.9333C8.24977 20.1644 7.63554 20.2248 7.04296 20.1069C6.45039 19.989 5.90608 19.698 5.47885 19.2708C5.05162 18.8436 4.76065 18.2993 4.64274 17.7067C4.52482 17.1141 4.58525 16.4999 4.81638 15.9417C5.04751 15.3834 5.43897 14.9062 5.94126 14.5705C6.44355 14.2347 7.03413 14.0563 7.63832 14.0561Z" fill="#515E68"/>
<path opacity="0.8" d="M10.6934 1.83325H13.7486C14.559 1.83325 15.3363 2.15519 15.9093 2.72825C16.4824 3.3013 16.8043 4.07854 16.8043 4.88896C16.8043 5.69938 16.4824 6.47662 15.9093 7.04967C15.3363 7.62273 14.559 7.94467 13.7486 7.94467H10.6934V1.83325Z" fill="#515E68"/>
</svg>
