<svg width="14" height="20" viewBox="0 0 14 20" fill="none" xmlns="http://www.w3.org/2000/svg">
<path fill-rule="evenodd" clip-rule="evenodd" d="M4 5C4 3.67392 4.52678 2.40215 5.46447 1.46447C6.40215 0.526784 7.67392 0 9 0C10.3261 0 11.5979 0.526784 12.5355 1.46447C13.4732 2.40215 14 3.67392 14 5V13C14 13.9193 13.8189 14.8295 13.4672 15.6788C13.1154 16.5281 12.5998 17.2997 11.9497 17.9497C11.2997 18.5998 10.5281 19.1154 9.67878 19.4672C8.8295 19.8189 7.91925 20 7 20C6.08075 20 5.17049 19.8189 4.32122 19.4672C3.47194 19.1154 2.70026 18.5998 2.05025 17.9497C1.40024 17.2997 0.884626 16.5281 0.532843 15.6788C0.18106 14.8295 -1.36979e-08 13.9193 0 13V7C0 6.73478 0.105357 6.48043 0.292893 6.29289C0.48043 6.10536 0.734784 6 1 6C1.26522 6 1.51957 6.10536 1.70711 6.29289C1.89464 6.48043 2 6.73478 2 7V13C2 14.3261 2.52678 15.5979 3.46447 16.5355C4.40215 17.4732 5.67392 18 7 18C8.32608 18 9.59785 17.4732 10.5355 16.5355C11.4732 15.5979 12 14.3261 12 13V5C12 4.60603 11.9224 4.21593 11.7716 3.85195C11.6209 3.48797 11.3999 3.15726 11.1213 2.87868C10.8427 2.6001 10.512 2.37913 10.1481 2.22836C9.78407 2.0776 9.39397 2 9 2C8.60603 2 8.21593 2.0776 7.85195 2.22836C7.48797 2.37913 7.15726 2.6001 6.87868 2.87868C6.6001 3.15726 6.37913 3.48797 6.22836 3.85195C6.0776 4.21593 6 4.60603 6 5V13C6 13.2652 6.10536 13.5196 6.29289 13.7071C6.48043 13.8946 6.73478 14 7 14C7.26522 14 7.51957 13.8946 7.70711 13.7071C7.89464 13.5196 8 13.2652 8 13V7C8 6.73478 8.10536 6.48043 8.29289 6.29289C8.48043 6.10536 8.73478 6 9 6C9.26522 6 9.51957 6.10536 9.70711 6.29289C9.89464 6.48043 10 6.73478 10 7V13C10 13.7956 9.68393 14.5587 9.12132 15.1213C8.55871 15.6839 7.79565 16 7 16C6.20435 16 5.44129 15.6839 4.87868 15.1213C4.31607 14.5587 4 13.7956 4 13V5Z" fill="black"/>
</svg>
