<svg width="18" height="18" viewBox="0 0 18 18" fill="none" xmlns="http://www.w3.org/2000/svg">
<path d="M4.6136 13.0904C4.9296 13.5528 5.8872 14.5384 7.1936 14.7864M7.2912 17C6.4688 16.864 1 15.0848 1 9.0744C1 3.4504 5.8016 1 9 1C12.2 1 17 3.4504 17 9.0744C17 15.0848 11.5312 16.8648 10.7088 17C10.7088 17 10.5408 14.2664 10.6392 13.7976C10.7368 13.3288 10.404 12.5752 10.404 12.5752C11.1808 12.284 12.364 11.868 12.76 10.7496C13.068 9.8824 13.2616 8.6232 12.4 7.4392C12.4 7.4392 12.6256 5.5272 12.2 5.452C11.7736 5.3784 10.52 6.2096 10.52 6.2096C10.1544 6.1056 9.3392 5.908 9.0016 5.9432C8.6632 5.908 7.8456 6.1056 7.48 6.2096C7.48 6.2096 6.2256 5.3776 5.8 5.452C5.3744 5.5264 5.6 7.4392 5.6 7.4392C4.7384 8.6232 4.932 9.8824 5.24 10.7496C5.6368 11.868 6.8192 12.284 7.596 12.5752C7.596 12.5752 7.2632 13.3288 7.3608 13.7976C7.4584 14.2664 7.2912 17 7.2912 17Z" stroke="#515E68" stroke-linecap="round" stroke-linejoin="round"/>
</svg>
