<svg width="16" height="16" viewBox="0 0 16 16" fill="none" xmlns="http://www.w3.org/2000/svg">
<path d="M1 8.7H3.212C3.8455 8.7 4.1626 8.7 4.4412 8.8281C4.7198 8.9562 4.9256 9.197 5.3379 9.6779L5.7621 10.1721C6.1744 10.653 6.3802 10.8938 6.6588 11.0219C6.9374 11.15 7.2538 11.15 7.888 11.15H8.112C8.7455 11.15 9.0626 11.15 9.3412 11.0219C9.6198 10.8938 9.8256 10.653 10.2379 10.1721L10.6621 9.6779C11.0744 9.197 11.2802 8.9562 11.5588 8.8281C11.8374 8.7 12.1538 8.7 12.788 8.7H15M5.2 4.5H10.8M6.6 6.95H9.4" stroke="black" stroke-linecap="round"/>
<path d="M15 8C15 11.2998 15 12.9497 13.9745 13.9745C12.9504 15 11.2998 15 8 15C4.7002 15 3.0503 15 2.0248 13.9745C1 12.9504 1 11.2998 1 8C1 4.7002 1 3.0503 2.0248 2.0248C3.051 1 4.7002 1 8 1C11.2998 1 12.9497 1 13.9745 2.0248C14.6563 2.7066 14.8845 3.6649 14.9615 5.2" stroke="black" stroke-linecap="round"/>
</svg>
