<svg width="24" height="24" viewBox="0 0 24 24" fill="none" xmlns="http://www.w3.org/2000/svg">
<path fill-rule="evenodd" clip-rule="evenodd" d="M9.94416 14.7209C10.0482 14.8149 10.1602 14.8409 10.2802 14.7999L11.9832 14.1119L18.8272 7.26794L17.4212 5.86994L10.5852 12.7059L9.87416 14.3859C9.82216 14.5159 9.84516 14.6279 9.94416 14.7209ZM18.0462 5.23694L19.4602 6.64294L19.9752 6.11994C20.1483 5.95395 20.2496 5.7267 20.2572 5.48694C20.263 5.37239 20.2428 5.258 20.1981 5.15236C20.1534 5.04672 20.0854 4.95256 19.9992 4.87694L19.7492 4.62694C19.673 4.55447 19.5815 4.50005 19.4814 4.46768C19.3814 4.43531 19.2754 4.42583 19.1712 4.43994C18.9364 4.46109 18.7172 4.5666 18.5542 4.73694L18.0462 5.23694ZM8.59316 5.36394C7.57208 5.36394 6.59282 5.76956 5.8708 6.49158C5.14879 7.21359 4.74316 8.19286 4.74316 9.21394V15.7139C4.74316 16.735 5.14879 17.7143 5.8708 18.4363C6.59282 19.1583 7.57208 19.5639 8.59316 19.5639H15.0932C16.1142 19.5639 17.0935 19.1583 17.8155 18.4363C18.5375 17.7143 18.9432 16.735 18.9432 15.7139V12.9499C18.9432 12.7245 18.8536 12.5083 18.6942 12.3489C18.5348 12.1895 18.3186 12.0999 18.0932 12.0999C17.8677 12.0999 17.6515 12.1895 17.4921 12.3489C17.3327 12.5083 17.2432 12.7245 17.2432 12.9499V15.7139C17.2432 16.2842 17.0166 16.831 16.6134 17.2342C16.2102 17.6374 15.6634 17.8639 15.0932 17.8639H8.59316C8.02295 17.8639 7.47609 17.6374 7.07288 17.2342C6.66968 16.831 6.44316 16.2842 6.44316 15.7139V9.21394C6.44316 8.64373 6.66968 8.09686 7.07288 7.69366C7.47609 7.29046 8.02295 7.06394 8.59316 7.06394H11.9882C12.2136 7.06394 12.4298 6.97439 12.5892 6.81498C12.7486 6.65558 12.8382 6.43937 12.8382 6.21394C12.8382 5.98851 12.7486 5.77231 12.5892 5.6129C12.4298 5.45349 12.2136 5.36394 11.9882 5.36394H8.59316Z" fill="#515E68"/>
</svg>
