<svg width="14" height="14" viewBox="0 0 14 14" fill="none" xmlns="http://www.w3.org/2000/svg">
<g clip-path="url(#clip0_195_3118)">
<path d="M7.00033 9.33342V4.66676M4.66699 8.16676V5.83342M9.33366 8.16676V5.83342M9.91699 1.94726C9.0306 1.43445 8.02436 1.16518 7.00033 1.16675C3.77858 1.16675 1.16699 3.77834 1.16699 7.00009C1.16699 7.93342 1.38633 8.81542 1.77541 9.59767C1.87924 9.80534 1.91366 10.0428 1.85358 10.2673L1.50649 11.5658C1.47212 11.6943 1.47215 11.8296 1.50658 11.9581C1.54102 12.0866 1.60864 12.2038 1.70268 12.2979C1.79671 12.392 1.91383 12.4597 2.0423 12.4942C2.17077 12.5287 2.30605 12.5288 2.43458 12.4945L3.73308 12.1468C3.95848 12.0901 4.19684 12.1177 4.40333 12.2244C5.21003 12.6261 6.09914 12.8346 7.00033 12.8334C10.2221 12.8334 12.8337 10.2218 12.8337 7.00009C12.8337 5.93784 12.5496 4.94092 12.0532 4.08342" stroke="#888888" stroke-linecap="round"/>
</g>
<defs>
<clipPath id="clip0_195_3118">
<rect width="14" height="14" fill="white"/>
</clipPath>
</defs>
</svg>
