<svg width="21" height="21" viewBox="0 0 21 21" fill="none" xmlns="http://www.w3.org/2000/svg">
<path d="M17.5 1.75H7C6.0375 1.75 5.25 2.5375 5.25 3.5V14C5.25 14.9625 6.0375 15.75 7 15.75H17.5C18.4625 15.75 19.25 14.9625 19.25 14V3.5C19.25 2.5375 18.4625 1.75 17.5 1.75ZM17.5 14H7V3.5H17.5V14ZM3.5 5.25H1.75V17.5C1.75 18.4625 2.5375 19.25 3.5 19.25H15.75V17.5H3.5V5.25ZM14 10.5V7.875C14 7.39375 13.6063 7 13.125 7H11.375V11.375H13.125C13.6063 11.375 14 10.9813 14 10.5ZM12.25 7.875H13.125V10.5H12.25V7.875ZM15.75 9.625H16.625V8.75H15.75V7.875H16.625V7H14.875V11.375H15.75V9.625ZM8.75 9.625H9.625C10.1063 9.625 10.5 9.23125 10.5 8.75V7.875C10.5 7.39375 10.1063 7 9.625 7H7.875V11.375H8.75V9.625ZM8.75 7.875H9.625V8.75H8.75V7.875Z" fill="#515E68"/>
</svg>
