<svg width="16" height="16" viewBox="0 0 16 16" fill="none" xmlns="http://www.w3.org/2000/svg">
<path d="M12.6447 10.5698L13.846 6.96451C14.8961 3.81562 15.4212 2.24117 14.5895 1.41019C13.7585 0.579218 12.1841 1.10357 9.03448 2.15366L5.42985 3.35497C2.88862 4.20205 1.618 4.62629 1.25747 5.24725C1.08883 5.53748 1 5.86717 1 6.20284C1 6.5385 1.08883 6.86819 1.25747 7.15842C1.618 7.78008 2.88862 8.20362 5.42985 9.0514C5.83869 9.18721 6.04241 9.25512 6.21322 9.36923C6.37844 9.47984 6.52055 9.62195 6.63116 9.78717C6.74527 9.95798 6.81318 10.1617 6.94899 10.5698C7.79607 13.1111 8.22031 14.3824 8.84126 14.7436C9.13165 14.9122 9.46144 15.001 9.7972 15.001C10.133 15.001 10.4628 14.9122 10.7531 14.7436C11.3741 14.3824 11.7969 13.1118 12.6447 10.5698Z" stroke="#D85C1F" stroke-width="2"/>
<path d="M12.0518 3.9469L9.10449 6.86267" stroke="#D85C1F" stroke-width="2" stroke-linecap="round"/>
</svg>
