<svg width="17" height="17" viewBox="0 0 17 17" fill="none" xmlns="http://www.w3.org/2000/svg">
<path d="M5.875 11.7598C6.41456 12.1597 7.07156 12.3945 7.77934 12.3945C8.48712 12.3945 9.14412 12.1597 9.68368 11.7598" stroke="#888888" stroke-linecap="round"/>
<path d="M9.68361 9.22075C10.0342 9.22075 10.3184 8.79444 10.3184 8.26858C10.3184 7.74271 10.0342 7.31641 9.68361 7.31641C9.33303 7.31641 9.04883 7.74271 9.04883 8.26858C9.04883 8.79444 9.33303 9.22075 9.68361 9.22075Z" fill="#888888"/>
<path d="M5.87501 9.22075C6.22559 9.22075 6.50979 8.79444 6.50979 8.26858C6.50979 7.74271 6.22559 7.31641 5.87501 7.31641C5.52443 7.31641 5.24023 7.74271 5.24023 8.26858C5.24023 8.79444 5.52443 9.22075 5.87501 9.22075Z" fill="#888888"/>
<path d="M1.55859 7.95128C1.80831 6.73179 2.41065 5.61247 3.29086 4.73226C4.17106 3.85206 5.29038 3.24972 6.50988 3M1.55859 10.4904C1.80831 11.7099 2.41065 12.8292 3.29086 13.7094C4.17106 14.5896 5.29038 15.192 6.50988 15.4417M12.268 4.73226C11.3878 3.85206 10.2685 3.24972 9.049 3M14.0003 10.4904C13.7506 11.7099 13.1482 12.8292 12.268 13.7094C11.3878 14.5896 10.2685 15.192 9.049 15.4417" stroke="#888888" stroke-linecap="round"/>
<path d="M13.5858 6.01428L13.5858 9.18591M12 7.6001L15.1716 7.6001" stroke="#888888" stroke-linecap="round"/>
</svg>
