<svg width="17" height="17" viewBox="0 0 17 17" fill="none" xmlns="http://www.w3.org/2000/svg">
<path d="M7.11025 15.1581L8.75075 12.3173C8.66745 12.3224 8.58387 12.325 8.5 12.325C7.81608 12.3251 7.14464 12.1418 6.55563 11.7942C5.96661 11.4466 5.48156 10.9475 5.151 10.3488L2.37575 5.542C1.92664 6.47232 1.69531 7.49271 1.69932 8.52575C1.70333 9.55879 1.94257 10.5774 2.39888 11.5042C2.8552 12.431 3.51661 13.2417 4.33293 13.8748C5.14925 14.5079 6.09905 14.9467 7.11025 15.1581ZM9.0015 15.2822C10.0318 15.2063 11.0312 14.8968 11.924 14.3769C12.8168 13.8571 13.5794 13.1407 14.1539 12.2822C14.7284 11.4236 15.0997 10.4454 15.2397 9.42183C15.3797 8.39829 15.2846 7.35631 14.9617 6.375H11.6807C12.0879 6.98275 12.325 7.71375 12.325 8.5C12.325 9.2208 12.1261 9.894 11.7793 10.4703L9.0015 15.2822ZM10.3215 9.5948L10.3403 9.5625C10.5259 9.24096 10.624 8.87641 10.6249 8.50514C10.6257 8.13388 10.5293 7.76886 10.3452 7.44645C10.1612 7.12404 9.89581 6.85548 9.57563 6.66753C9.25545 6.47959 8.89162 6.3788 8.52037 6.37522C8.14913 6.37164 7.78342 6.46539 7.45967 6.64712C7.13593 6.82886 6.86545 7.09225 6.67517 7.41105C6.4849 7.72985 6.38147 8.09293 6.37518 8.46415C6.3689 8.83536 6.45998 9.20174 6.63935 9.5268L6.65975 9.5625C6.84473 9.8828 7.11011 10.1493 7.42964 10.3356C7.74918 10.5218 8.1118 10.6215 8.48166 10.6247C8.85152 10.6279 9.21581 10.5344 9.53849 10.3537C9.86118 10.1729 10.1311 9.91102 10.3215 9.59395M3.42975 3.96695L5.06855 6.80595C5.3847 6.16594 5.87363 5.62717 6.48005 5.25059C7.08647 4.874 7.78617 4.67462 8.5 4.675H14.1228C13.4996 3.75777 12.6614 3.00707 11.6812 2.48848C10.7011 1.96989 9.60888 1.69918 8.5 1.7C7.54263 1.69892 6.59588 1.90051 5.722 2.29152C4.84812 2.68253 4.06691 3.25411 3.42975 3.96865M8.5 17C3.80545 17 0 13.1946 0 8.5C0 3.80545 3.80545 0 8.5 0C13.1946 0 17 3.80545 17 8.5C17 13.1946 13.1946 17 8.5 17Z" fill="#515E68"/>
</svg>
