<svg width="1512" height="982" viewBox="0 0 1512 982" fill="none" xmlns="http://www.w3.org/2000/svg">
<rect width="1512" height="982" fill="#F6F8FA"/>
<g clip-path="url(#clip0_388_2)">
<circle cx="11" cy="30" r="3" fill="#E3E4E9"/>
<circle cx="57" cy="30" r="3" fill="#E3E4E9"/>
<circle cx="103" cy="30" r="3" fill="#E3E4E9"/>
<circle cx="149" cy="30" r="3" fill="#E3E4E9"/>
<circle cx="195" cy="30" r="3" fill="#E3E4E9"/>
<circle cx="241" cy="30" r="3" fill="#E3E4E9"/>
<circle cx="287" cy="30" r="3" fill="#E3E4E9"/>
<circle cx="333" cy="30" r="3" fill="#E3E4E9"/>
<circle cx="379" cy="30" r="3" fill="#E3E4E9"/>
<circle cx="425" cy="30" r="3" fill="#E3E4E9"/>
<circle cx="471" cy="30" r="3" fill="#E3E4E9"/>
<circle cx="517" cy="30" r="3" fill="#E3E4E9"/>
<circle cx="563" cy="30" r="3" fill="#E3E4E9"/>
<circle cx="609" cy="30" r="3" fill="#E3E4E9"/>
<circle cx="655" cy="30" r="3" fill="#E3E4E9"/>
<circle cx="701" cy="30" r="3" fill="#E3E4E9"/>
<circle cx="747" cy="30" r="3" fill="#E3E4E9"/>
<circle cx="793" cy="30" r="3" fill="#E3E4E9"/>
<circle cx="839" cy="30" r="3" fill="#E3E4E9"/>
<circle cx="885" cy="30" r="3" fill="#E3E4E9"/>
<circle cx="931" cy="30" r="3" fill="#E3E4E9"/>
<circle cx="977" cy="30" r="3" fill="#E3E4E9"/>
<circle cx="1023" cy="30" r="3" fill="#E3E4E9"/>
<circle cx="1069" cy="30" r="3" fill="#E3E4E9"/>
<circle cx="1115" cy="30" r="3" fill="#E3E4E9"/>
<circle cx="1161" cy="30" r="3" fill="#E3E4E9"/>
<circle cx="1207" cy="30" r="3" fill="#E3E4E9"/>
<circle cx="1253" cy="30" r="3" fill="#E3E4E9"/>
<circle cx="1299" cy="30" r="3" fill="#E3E4E9"/>
<circle cx="1345" cy="30" r="3" fill="#E3E4E9"/>
<circle cx="1391" cy="30" r="3" fill="#E3E4E9"/>
<circle cx="1437" cy="30" r="3" fill="#E3E4E9"/>
<circle cx="1483" cy="30" r="3" fill="#E3E4E9"/>
</g>
<g clip-path="url(#clip1_388_2)">
<circle cx="11" cy="90" r="3" fill="#E3E4E9"/>
<circle cx="57" cy="90" r="3" fill="#E3E4E9"/>
<circle cx="103" cy="90" r="3" fill="#E3E4E9"/>
<circle cx="149" cy="90" r="3" fill="#E3E4E9"/>
<circle cx="195" cy="90" r="3" fill="#E3E4E9"/>
<circle cx="241" cy="90" r="3" fill="#E3E4E9"/>
<circle cx="287" cy="90" r="3" fill="#E3E4E9"/>
<circle cx="333" cy="90" r="3" fill="#E3E4E9"/>
<circle cx="379" cy="90" r="3" fill="#E3E4E9"/>
<circle cx="425" cy="90" r="3" fill="#E3E4E9"/>
<circle cx="471" cy="90" r="3" fill="#E3E4E9"/>
<circle cx="517" cy="90" r="3" fill="#E3E4E9"/>
<circle cx="563" cy="90" r="3" fill="#E3E4E9"/>
<circle cx="609" cy="90" r="3" fill="#E3E4E9"/>
<circle cx="655" cy="90" r="3" fill="#E3E4E9"/>
<circle cx="701" cy="90" r="3" fill="#E3E4E9"/>
<circle cx="747" cy="90" r="3" fill="#E3E4E9"/>
<circle cx="793" cy="90" r="3" fill="#E3E4E9"/>
<circle cx="839" cy="90" r="3" fill="#E3E4E9"/>
<circle cx="885" cy="90" r="3" fill="#E3E4E9"/>
<circle cx="931" cy="90" r="3" fill="#E3E4E9"/>
<circle cx="977" cy="90" r="3" fill="#E3E4E9"/>
<circle cx="1023" cy="90" r="3" fill="#E3E4E9"/>
<circle cx="1069" cy="90" r="3" fill="#E3E4E9"/>
<circle cx="1115" cy="90" r="3" fill="#E3E4E9"/>
<circle cx="1161" cy="90" r="3" fill="#E3E4E9"/>
<circle cx="1207" cy="90" r="3" fill="#E3E4E9"/>
<circle cx="1253" cy="90" r="3" fill="#E3E4E9"/>
<circle cx="1299" cy="90" r="3" fill="#E3E4E9"/>
<circle cx="1345" cy="90" r="3" fill="#E3E4E9"/>
<circle cx="1391" cy="90" r="3" fill="#E3E4E9"/>
<circle cx="1437" cy="90" r="3" fill="#E3E4E9"/>
<circle cx="1483" cy="90" r="3" fill="#E3E4E9"/>
</g>
<g clip-path="url(#clip2_388_2)">
<circle cx="11" cy="150" r="3" fill="#E3E4E9"/>
<circle cx="57" cy="150" r="3" fill="#E3E4E9"/>
<circle cx="103" cy="150" r="3" fill="#E3E4E9"/>
<circle cx="149" cy="150" r="3" fill="#E3E4E9"/>
<circle cx="195" cy="150" r="3" fill="#E3E4E9"/>
<circle cx="241" cy="150" r="3" fill="#E3E4E9"/>
<circle cx="287" cy="150" r="3" fill="#E3E4E9"/>
<circle cx="333" cy="150" r="3" fill="#E3E4E9"/>
<circle cx="379" cy="150" r="3" fill="#E3E4E9"/>
<circle cx="425" cy="150" r="3" fill="#E3E4E9"/>
<circle cx="471" cy="150" r="3" fill="#E3E4E9"/>
<circle cx="517" cy="150" r="3" fill="#E3E4E9"/>
<circle cx="563" cy="150" r="3" fill="#E3E4E9"/>
<circle cx="609" cy="150" r="3" fill="#E3E4E9"/>
<circle cx="655" cy="150" r="3" fill="#E3E4E9"/>
<circle cx="701" cy="150" r="3" fill="#E3E4E9"/>
<circle cx="747" cy="150" r="3" fill="#E3E4E9"/>
<circle cx="793" cy="150" r="3" fill="#E3E4E9"/>
<circle cx="839" cy="150" r="3" fill="#E3E4E9"/>
<circle cx="885" cy="150" r="3" fill="#E3E4E9"/>
<circle cx="931" cy="150" r="3" fill="#E3E4E9"/>
<circle cx="977" cy="150" r="3" fill="#E3E4E9"/>
<circle cx="1023" cy="150" r="3" fill="#E3E4E9"/>
<circle cx="1069" cy="150" r="3" fill="#E3E4E9"/>
<circle cx="1115" cy="150" r="3" fill="#E3E4E9"/>
<circle cx="1161" cy="150" r="3" fill="#E3E4E9"/>
<circle cx="1207" cy="150" r="3" fill="#E3E4E9"/>
<circle cx="1253" cy="150" r="3" fill="#E3E4E9"/>
<circle cx="1299" cy="150" r="3" fill="#E3E4E9"/>
<circle cx="1345" cy="150" r="3" fill="#E3E4E9"/>
<circle cx="1391" cy="150" r="3" fill="#E3E4E9"/>
<circle cx="1437" cy="150" r="3" fill="#E3E4E9"/>
<circle cx="1483" cy="150" r="3" fill="#E3E4E9"/>
</g>
<g clip-path="url(#clip3_388_2)">
<circle cx="11" cy="210" r="3" fill="#E3E4E9"/>
<circle cx="57" cy="210" r="3" fill="#E3E4E9"/>
<circle cx="103" cy="210" r="3" fill="#E3E4E9"/>
<circle cx="149" cy="210" r="3" fill="#E3E4E9"/>
<circle cx="195" cy="210" r="3" fill="#E3E4E9"/>
<circle cx="241" cy="210" r="3" fill="#E3E4E9"/>
<circle cx="287" cy="210" r="3" fill="#E3E4E9"/>
<circle cx="333" cy="210" r="3" fill="#E3E4E9"/>
<circle cx="379" cy="210" r="3" fill="#E3E4E9"/>
<circle cx="425" cy="210" r="3" fill="#E3E4E9"/>
<circle cx="471" cy="210" r="3" fill="#E3E4E9"/>
<circle cx="517" cy="210" r="3" fill="#E3E4E9"/>
<circle cx="563" cy="210" r="3" fill="#E3E4E9"/>
<circle cx="609" cy="210" r="3" fill="#E3E4E9"/>
<circle cx="655" cy="210" r="3" fill="#E3E4E9"/>
<circle cx="701" cy="210" r="3" fill="#E3E4E9"/>
<circle cx="747" cy="210" r="3" fill="#E3E4E9"/>
<circle cx="793" cy="210" r="3" fill="#E3E4E9"/>
<circle cx="839" cy="210" r="3" fill="#E3E4E9"/>
<circle cx="885" cy="210" r="3" fill="#E3E4E9"/>
<circle cx="931" cy="210" r="3" fill="#E3E4E9"/>
<circle cx="977" cy="210" r="3" fill="#E3E4E9"/>
<circle cx="1023" cy="210" r="3" fill="#E3E4E9"/>
<circle cx="1069" cy="210" r="3" fill="#E3E4E9"/>
<circle cx="1115" cy="210" r="3" fill="#E3E4E9"/>
<circle cx="1161" cy="210" r="3" fill="#E3E4E9"/>
<circle cx="1207" cy="210" r="3" fill="#E3E4E9"/>
<circle cx="1253" cy="210" r="3" fill="#E3E4E9"/>
<circle cx="1299" cy="210" r="3" fill="#E3E4E9"/>
<circle cx="1345" cy="210" r="3" fill="#E3E4E9"/>
<circle cx="1391" cy="210" r="3" fill="#E3E4E9"/>
<circle cx="1437" cy="210" r="3" fill="#E3E4E9"/>
<circle cx="1483" cy="210" r="3" fill="#E3E4E9"/>
</g>
<g clip-path="url(#clip4_388_2)">
<circle cx="11" cy="270" r="3" fill="#E3E4E9"/>
<circle cx="57" cy="270" r="3" fill="#E3E4E9"/>
<circle cx="103" cy="270" r="3" fill="#E3E4E9"/>
<circle cx="149" cy="270" r="3" fill="#E3E4E9"/>
<circle cx="195" cy="270" r="3" fill="#E3E4E9"/>
<circle cx="241" cy="270" r="3" fill="#E3E4E9"/>
<circle cx="287" cy="270" r="3" fill="#E3E4E9"/>
<circle cx="333" cy="270" r="3" fill="#E3E4E9"/>
<circle cx="379" cy="270" r="3" fill="#E3E4E9"/>
<circle cx="425" cy="270" r="3" fill="#E3E4E9"/>
<circle cx="471" cy="270" r="3" fill="#E3E4E9"/>
<circle cx="517" cy="270" r="3" fill="#E3E4E9"/>
<circle cx="563" cy="270" r="3" fill="#E3E4E9"/>
<circle cx="609" cy="270" r="3" fill="#E3E4E9"/>
<circle cx="655" cy="270" r="3" fill="#E3E4E9"/>
<circle cx="701" cy="270" r="3" fill="#E3E4E9"/>
<circle cx="747" cy="270" r="3" fill="#E3E4E9"/>
<circle cx="793" cy="270" r="3" fill="#E3E4E9"/>
<circle cx="839" cy="270" r="3" fill="#E3E4E9"/>
<circle cx="885" cy="270" r="3" fill="#E3E4E9"/>
<circle cx="931" cy="270" r="3" fill="#E3E4E9"/>
<circle cx="977" cy="270" r="3" fill="#E3E4E9"/>
<circle cx="1023" cy="270" r="3" fill="#E3E4E9"/>
<circle cx="1069" cy="270" r="3" fill="#E3E4E9"/>
<circle cx="1115" cy="270" r="3" fill="#E3E4E9"/>
<circle cx="1161" cy="270" r="3" fill="#E3E4E9"/>
<circle cx="1207" cy="270" r="3" fill="#E3E4E9"/>
<circle cx="1253" cy="270" r="3" fill="#E3E4E9"/>
<circle cx="1299" cy="270" r="3" fill="#E3E4E9"/>
<circle cx="1345" cy="270" r="3" fill="#E3E4E9"/>
<circle cx="1391" cy="270" r="3" fill="#E3E4E9"/>
<circle cx="1437" cy="270" r="3" fill="#E3E4E9"/>
<circle cx="1483" cy="270" r="3" fill="#E3E4E9"/>
</g>
<g clip-path="url(#clip5_388_2)">
<circle cx="11" cy="330" r="3" fill="#E3E4E9"/>
<circle cx="57" cy="330" r="3" fill="#E3E4E9"/>
<circle cx="103" cy="330" r="3" fill="#E3E4E9"/>
<circle cx="149" cy="330" r="3" fill="#E3E4E9"/>
<circle cx="195" cy="330" r="3" fill="#E3E4E9"/>
<circle cx="241" cy="330" r="3" fill="#E3E4E9"/>
<circle cx="287" cy="330" r="3" fill="#E3E4E9"/>
<circle cx="333" cy="330" r="3" fill="#E3E4E9"/>
<circle cx="379" cy="330" r="3" fill="#E3E4E9"/>
<circle cx="425" cy="330" r="3" fill="#E3E4E9"/>
<circle cx="471" cy="330" r="3" fill="#E3E4E9"/>
<circle cx="517" cy="330" r="3" fill="#E3E4E9"/>
<circle cx="563" cy="330" r="3" fill="#E3E4E9"/>
<circle cx="609" cy="330" r="3" fill="#E3E4E9"/>
<circle cx="655" cy="330" r="3" fill="#E3E4E9"/>
<circle cx="701" cy="330" r="3" fill="#E3E4E9"/>
<circle cx="747" cy="330" r="3" fill="#E3E4E9"/>
<circle cx="793" cy="330" r="3" fill="#E3E4E9"/>
<circle cx="839" cy="330" r="3" fill="#E3E4E9"/>
<circle cx="885" cy="330" r="3" fill="#E3E4E9"/>
<circle cx="931" cy="330" r="3" fill="#E3E4E9"/>
<circle cx="977" cy="330" r="3" fill="#E3E4E9"/>
<circle cx="1023" cy="330" r="3" fill="#E3E4E9"/>
<circle cx="1069" cy="330" r="3" fill="#E3E4E9"/>
<circle cx="1115" cy="330" r="3" fill="#E3E4E9"/>
<circle cx="1161" cy="330" r="3" fill="#E3E4E9"/>
<circle cx="1207" cy="330" r="3" fill="#E3E4E9"/>
<circle cx="1253" cy="330" r="3" fill="#E3E4E9"/>
<circle cx="1299" cy="330" r="3" fill="#E3E4E9"/>
<circle cx="1345" cy="330" r="3" fill="#E3E4E9"/>
<circle cx="1391" cy="330" r="3" fill="#E3E4E9"/>
<circle cx="1437" cy="330" r="3" fill="#E3E4E9"/>
<circle cx="1483" cy="330" r="3" fill="#E3E4E9"/>
</g>
<g clip-path="url(#clip6_388_2)">
<circle cx="11" cy="390" r="3" fill="#E3E4E9"/>
<circle cx="57" cy="390" r="3" fill="#E3E4E9"/>
<circle cx="103" cy="390" r="3" fill="#E3E4E9"/>
<circle cx="149" cy="390" r="3" fill="#E3E4E9"/>
<circle cx="195" cy="390" r="3" fill="#E3E4E9"/>
<circle cx="241" cy="390" r="3" fill="#E3E4E9"/>
<circle cx="287" cy="390" r="3" fill="#E3E4E9"/>
<circle cx="333" cy="390" r="3" fill="#E3E4E9"/>
<circle cx="379" cy="390" r="3" fill="#E3E4E9"/>
<circle cx="425" cy="390" r="3" fill="#E3E4E9"/>
<circle cx="471" cy="390" r="3" fill="#E3E4E9"/>
<circle cx="517" cy="390" r="3" fill="#E3E4E9"/>
<circle cx="563" cy="390" r="3" fill="#E3E4E9"/>
<circle cx="609" cy="390" r="3" fill="#E3E4E9"/>
<circle cx="655" cy="390" r="3" fill="#E3E4E9"/>
<circle cx="701" cy="390" r="3" fill="#E3E4E9"/>
<circle cx="747" cy="390" r="3" fill="#E3E4E9"/>
<circle cx="793" cy="390" r="3" fill="#E3E4E9"/>
<circle cx="839" cy="390" r="3" fill="#E3E4E9"/>
<circle cx="885" cy="390" r="3" fill="#E3E4E9"/>
<circle cx="931" cy="390" r="3" fill="#E3E4E9"/>
<circle cx="977" cy="390" r="3" fill="#E3E4E9"/>
<circle cx="1023" cy="390" r="3" fill="#E3E4E9"/>
<circle cx="1069" cy="390" r="3" fill="#E3E4E9"/>
<circle cx="1115" cy="390" r="3" fill="#E3E4E9"/>
<circle cx="1161" cy="390" r="3" fill="#E3E4E9"/>
<circle cx="1207" cy="390" r="3" fill="#E3E4E9"/>
<circle cx="1253" cy="390" r="3" fill="#E3E4E9"/>
<circle cx="1299" cy="390" r="3" fill="#E3E4E9"/>
<circle cx="1345" cy="390" r="3" fill="#E3E4E9"/>
<circle cx="1391" cy="390" r="3" fill="#E3E4E9"/>
<circle cx="1437" cy="390" r="3" fill="#E3E4E9"/>
<circle cx="1483" cy="390" r="3" fill="#E3E4E9"/>
</g>
<g clip-path="url(#clip7_388_2)">
<circle cx="11" cy="450" r="3" fill="#E3E4E9"/>
<circle cx="57" cy="450" r="3" fill="#E3E4E9"/>
<circle cx="103" cy="450" r="3" fill="#E3E4E9"/>
<circle cx="149" cy="450" r="3" fill="#E3E4E9"/>
<circle cx="195" cy="450" r="3" fill="#E3E4E9"/>
<circle cx="241" cy="450" r="3" fill="#E3E4E9"/>
<circle cx="287" cy="450" r="3" fill="#E3E4E9"/>
<circle cx="333" cy="450" r="3" fill="#E3E4E9"/>
<circle cx="379" cy="450" r="3" fill="#E3E4E9"/>
<circle cx="425" cy="450" r="3" fill="#E3E4E9"/>
<circle cx="471" cy="450" r="3" fill="#E3E4E9"/>
<circle cx="517" cy="450" r="3" fill="#E3E4E9"/>
<circle cx="563" cy="450" r="3" fill="#E3E4E9"/>
<circle cx="609" cy="450" r="3" fill="#E3E4E9"/>
<circle cx="655" cy="450" r="3" fill="#E3E4E9"/>
<circle cx="701" cy="450" r="3" fill="#E3E4E9"/>
<circle cx="747" cy="450" r="3" fill="#E3E4E9"/>
<circle cx="793" cy="450" r="3" fill="#E3E4E9"/>
<circle cx="839" cy="450" r="3" fill="#E3E4E9"/>
<circle cx="885" cy="450" r="3" fill="#E3E4E9"/>
<circle cx="931" cy="450" r="3" fill="#E3E4E9"/>
<circle cx="977" cy="450" r="3" fill="#E3E4E9"/>
<circle cx="1023" cy="450" r="3" fill="#E3E4E9"/>
<circle cx="1069" cy="450" r="3" fill="#E3E4E9"/>
<circle cx="1115" cy="450" r="3" fill="#E3E4E9"/>
<circle cx="1161" cy="450" r="3" fill="#E3E4E9"/>
<circle cx="1207" cy="450" r="3" fill="#E3E4E9"/>
<circle cx="1253" cy="450" r="3" fill="#E3E4E9"/>
<circle cx="1299" cy="450" r="3" fill="#E3E4E9"/>
<circle cx="1345" cy="450" r="3" fill="#E3E4E9"/>
<circle cx="1391" cy="450" r="3" fill="#E3E4E9"/>
<circle cx="1437" cy="450" r="3" fill="#E3E4E9"/>
<circle cx="1483" cy="450" r="3" fill="#E3E4E9"/>
</g>
<g clip-path="url(#clip8_388_2)">
<circle cx="11" cy="510" r="3" fill="#E3E4E9"/>
<circle cx="57" cy="510" r="3" fill="#E3E4E9"/>
<circle cx="103" cy="510" r="3" fill="#E3E4E9"/>
<circle cx="149" cy="510" r="3" fill="#E3E4E9"/>
<circle cx="195" cy="510" r="3" fill="#E3E4E9"/>
<circle cx="241" cy="510" r="3" fill="#E3E4E9"/>
<circle cx="287" cy="510" r="3" fill="#E3E4E9"/>
<circle cx="333" cy="510" r="3" fill="#E3E4E9"/>
<circle cx="379" cy="510" r="3" fill="#E3E4E9"/>
<circle cx="425" cy="510" r="3" fill="#E3E4E9"/>
<circle cx="471" cy="510" r="3" fill="#E3E4E9"/>
<circle cx="517" cy="510" r="3" fill="#E3E4E9"/>
<circle cx="563" cy="510" r="3" fill="#E3E4E9"/>
<circle cx="609" cy="510" r="3" fill="#E3E4E9"/>
<circle cx="655" cy="510" r="3" fill="#E3E4E9"/>
<circle cx="701" cy="510" r="3" fill="#E3E4E9"/>
<circle cx="747" cy="510" r="3" fill="#E3E4E9"/>
<circle cx="793" cy="510" r="3" fill="#E3E4E9"/>
<circle cx="839" cy="510" r="3" fill="#E3E4E9"/>
<circle cx="885" cy="510" r="3" fill="#E3E4E9"/>
<circle cx="931" cy="510" r="3" fill="#E3E4E9"/>
<circle cx="977" cy="510" r="3" fill="#E3E4E9"/>
<circle cx="1023" cy="510" r="3" fill="#E3E4E9"/>
<circle cx="1069" cy="510" r="3" fill="#E3E4E9"/>
<circle cx="1115" cy="510" r="3" fill="#E3E4E9"/>
<circle cx="1161" cy="510" r="3" fill="#E3E4E9"/>
<circle cx="1207" cy="510" r="3" fill="#E3E4E9"/>
<circle cx="1253" cy="510" r="3" fill="#E3E4E9"/>
<circle cx="1299" cy="510" r="3" fill="#E3E4E9"/>
<circle cx="1345" cy="510" r="3" fill="#E3E4E9"/>
<circle cx="1391" cy="510" r="3" fill="#E3E4E9"/>
<circle cx="1437" cy="510" r="3" fill="#E3E4E9"/>
<circle cx="1483" cy="510" r="3" fill="#E3E4E9"/>
</g>
<g clip-path="url(#clip9_388_2)">
<circle cx="11" cy="570" r="3" fill="#E3E4E9"/>
<circle cx="57" cy="570" r="3" fill="#E3E4E9"/>
<circle cx="103" cy="570" r="3" fill="#E3E4E9"/>
<circle cx="149" cy="570" r="3" fill="#E3E4E9"/>
<circle cx="195" cy="570" r="3" fill="#E3E4E9"/>
<circle cx="241" cy="570" r="3" fill="#E3E4E9"/>
<circle cx="287" cy="570" r="3" fill="#E3E4E9"/>
<circle cx="333" cy="570" r="3" fill="#E3E4E9"/>
<circle cx="379" cy="570" r="3" fill="#E3E4E9"/>
<circle cx="425" cy="570" r="3" fill="#E3E4E9"/>
<circle cx="471" cy="570" r="3" fill="#E3E4E9"/>
<circle cx="517" cy="570" r="3" fill="#E3E4E9"/>
<circle cx="563" cy="570" r="3" fill="#E3E4E9"/>
<circle cx="609" cy="570" r="3" fill="#E3E4E9"/>
<circle cx="655" cy="570" r="3" fill="#E3E4E9"/>
<circle cx="701" cy="570" r="3" fill="#E3E4E9"/>
<circle cx="747" cy="570" r="3" fill="#E3E4E9"/>
<circle cx="793" cy="570" r="3" fill="#E3E4E9"/>
<circle cx="839" cy="570" r="3" fill="#E3E4E9"/>
<circle cx="885" cy="570" r="3" fill="#E3E4E9"/>
<circle cx="931" cy="570" r="3" fill="#E3E4E9"/>
<circle cx="977" cy="570" r="3" fill="#E3E4E9"/>
<circle cx="1023" cy="570" r="3" fill="#E3E4E9"/>
<circle cx="1069" cy="570" r="3" fill="#E3E4E9"/>
<circle cx="1115" cy="570" r="3" fill="#E3E4E9"/>
<circle cx="1161" cy="570" r="3" fill="#E3E4E9"/>
<circle cx="1207" cy="570" r="3" fill="#E3E4E9"/>
<circle cx="1253" cy="570" r="3" fill="#E3E4E9"/>
<circle cx="1299" cy="570" r="3" fill="#E3E4E9"/>
<circle cx="1345" cy="570" r="3" fill="#E3E4E9"/>
<circle cx="1391" cy="570" r="3" fill="#E3E4E9"/>
<circle cx="1437" cy="570" r="3" fill="#E3E4E9"/>
<circle cx="1483" cy="570" r="3" fill="#E3E4E9"/>
</g>
<g clip-path="url(#clip10_388_2)">
<circle cx="11" cy="630" r="3" fill="#E3E4E9"/>
<circle cx="57" cy="630" r="3" fill="#E3E4E9"/>
<circle cx="103" cy="630" r="3" fill="#E3E4E9"/>
<circle cx="149" cy="630" r="3" fill="#E3E4E9"/>
<circle cx="195" cy="630" r="3" fill="#E3E4E9"/>
<circle cx="241" cy="630" r="3" fill="#E3E4E9"/>
<circle cx="287" cy="630" r="3" fill="#E3E4E9"/>
<circle cx="333" cy="630" r="3" fill="#E3E4E9"/>
<circle cx="379" cy="630" r="3" fill="#E3E4E9"/>
<circle cx="425" cy="630" r="3" fill="#E3E4E9"/>
<circle cx="471" cy="630" r="3" fill="#E3E4E9"/>
<circle cx="517" cy="630" r="3" fill="#E3E4E9"/>
<circle cx="563" cy="630" r="3" fill="#E3E4E9"/>
<circle cx="609" cy="630" r="3" fill="#E3E4E9"/>
<circle cx="655" cy="630" r="3" fill="#E3E4E9"/>
<circle cx="701" cy="630" r="3" fill="#E3E4E9"/>
<circle cx="747" cy="630" r="3" fill="#E3E4E9"/>
<circle cx="793" cy="630" r="3" fill="#E3E4E9"/>
<circle cx="839" cy="630" r="3" fill="#E3E4E9"/>
<circle cx="885" cy="630" r="3" fill="#E3E4E9"/>
<circle cx="931" cy="630" r="3" fill="#E3E4E9"/>
<circle cx="977" cy="630" r="3" fill="#E3E4E9"/>
<circle cx="1023" cy="630" r="3" fill="#E3E4E9"/>
<circle cx="1069" cy="630" r="3" fill="#E3E4E9"/>
<circle cx="1115" cy="630" r="3" fill="#E3E4E9"/>
<circle cx="1161" cy="630" r="3" fill="#E3E4E9"/>
<circle cx="1207" cy="630" r="3" fill="#E3E4E9"/>
<circle cx="1253" cy="630" r="3" fill="#E3E4E9"/>
<circle cx="1299" cy="630" r="3" fill="#E3E4E9"/>
<circle cx="1345" cy="630" r="3" fill="#E3E4E9"/>
<circle cx="1391" cy="630" r="3" fill="#E3E4E9"/>
<circle cx="1437" cy="630" r="3" fill="#E3E4E9"/>
<circle cx="1483" cy="630" r="3" fill="#E3E4E9"/>
</g>
<g clip-path="url(#clip11_388_2)">
<circle cx="11" cy="690" r="3" fill="#E3E4E9"/>
<circle cx="57" cy="690" r="3" fill="#E3E4E9"/>
<circle cx="103" cy="690" r="3" fill="#E3E4E9"/>
<circle cx="149" cy="690" r="3" fill="#E3E4E9"/>
<circle cx="195" cy="690" r="3" fill="#E3E4E9"/>
<circle cx="241" cy="690" r="3" fill="#E3E4E9"/>
<circle cx="287" cy="690" r="3" fill="#E3E4E9"/>
<circle cx="333" cy="690" r="3" fill="#E3E4E9"/>
<circle cx="379" cy="690" r="3" fill="#E3E4E9"/>
<circle cx="425" cy="690" r="3" fill="#E3E4E9"/>
<circle cx="471" cy="690" r="3" fill="#E3E4E9"/>
<circle cx="517" cy="690" r="3" fill="#E3E4E9"/>
<circle cx="563" cy="690" r="3" fill="#E3E4E9"/>
<circle cx="609" cy="690" r="3" fill="#E3E4E9"/>
<circle cx="655" cy="690" r="3" fill="#E3E4E9"/>
<circle cx="701" cy="690" r="3" fill="#E3E4E9"/>
<circle cx="747" cy="690" r="3" fill="#E3E4E9"/>
<circle cx="793" cy="690" r="3" fill="#E3E4E9"/>
<circle cx="839" cy="690" r="3" fill="#E3E4E9"/>
<circle cx="885" cy="690" r="3" fill="#E3E4E9"/>
<circle cx="931" cy="690" r="3" fill="#E3E4E9"/>
<circle cx="977" cy="690" r="3" fill="#E3E4E9"/>
<circle cx="1023" cy="690" r="3" fill="#E3E4E9"/>
<circle cx="1069" cy="690" r="3" fill="#E3E4E9"/>
<circle cx="1115" cy="690" r="3" fill="#E3E4E9"/>
<circle cx="1161" cy="690" r="3" fill="#E3E4E9"/>
<circle cx="1207" cy="690" r="3" fill="#E3E4E9"/>
<circle cx="1253" cy="690" r="3" fill="#E3E4E9"/>
<circle cx="1299" cy="690" r="3" fill="#E3E4E9"/>
<circle cx="1345" cy="690" r="3" fill="#E3E4E9"/>
<circle cx="1391" cy="690" r="3" fill="#E3E4E9"/>
<circle cx="1437" cy="690" r="3" fill="#E3E4E9"/>
<circle cx="1483" cy="690" r="3" fill="#E3E4E9"/>
</g>
<g clip-path="url(#clip12_388_2)">
<circle cx="11" cy="750" r="3" fill="#E3E4E9"/>
<circle cx="57" cy="750" r="3" fill="#E3E4E9"/>
<circle cx="103" cy="750" r="3" fill="#E3E4E9"/>
<circle cx="149" cy="750" r="3" fill="#E3E4E9"/>
<circle cx="195" cy="750" r="3" fill="#E3E4E9"/>
<circle cx="241" cy="750" r="3" fill="#E3E4E9"/>
<circle cx="287" cy="750" r="3" fill="#E3E4E9"/>
<circle cx="333" cy="750" r="3" fill="#E3E4E9"/>
<circle cx="379" cy="750" r="3" fill="#E3E4E9"/>
<circle cx="425" cy="750" r="3" fill="#E3E4E9"/>
<circle cx="471" cy="750" r="3" fill="#E3E4E9"/>
<circle cx="517" cy="750" r="3" fill="#E3E4E9"/>
<circle cx="563" cy="750" r="3" fill="#E3E4E9"/>
<circle cx="609" cy="750" r="3" fill="#E3E4E9"/>
<circle cx="655" cy="750" r="3" fill="#E3E4E9"/>
<circle cx="701" cy="750" r="3" fill="#E3E4E9"/>
<circle cx="747" cy="750" r="3" fill="#E3E4E9"/>
<circle cx="793" cy="750" r="3" fill="#E3E4E9"/>
<circle cx="839" cy="750" r="3" fill="#E3E4E9"/>
<circle cx="885" cy="750" r="3" fill="#E3E4E9"/>
<circle cx="931" cy="750" r="3" fill="#E3E4E9"/>
<circle cx="977" cy="750" r="3" fill="#E3E4E9"/>
<circle cx="1023" cy="750" r="3" fill="#E3E4E9"/>
<circle cx="1069" cy="750" r="3" fill="#E3E4E9"/>
<circle cx="1115" cy="750" r="3" fill="#E3E4E9"/>
<circle cx="1161" cy="750" r="3" fill="#E3E4E9"/>
<circle cx="1207" cy="750" r="3" fill="#E3E4E9"/>
<circle cx="1253" cy="750" r="3" fill="#E3E4E9"/>
<circle cx="1299" cy="750" r="3" fill="#E3E4E9"/>
<circle cx="1345" cy="750" r="3" fill="#E3E4E9"/>
<circle cx="1391" cy="750" r="3" fill="#E3E4E9"/>
<circle cx="1437" cy="750" r="3" fill="#E3E4E9"/>
<circle cx="1483" cy="750" r="3" fill="#E3E4E9"/>
</g>
<g clip-path="url(#clip13_388_2)">
<circle cx="11" cy="810" r="3" fill="#E3E4E9"/>
<circle cx="57" cy="810" r="3" fill="#E3E4E9"/>
<circle cx="103" cy="810" r="3" fill="#E3E4E9"/>
<circle cx="149" cy="810" r="3" fill="#E3E4E9"/>
<circle cx="195" cy="810" r="3" fill="#E3E4E9"/>
<circle cx="241" cy="810" r="3" fill="#E3E4E9"/>
<circle cx="287" cy="810" r="3" fill="#E3E4E9"/>
<circle cx="333" cy="810" r="3" fill="#E3E4E9"/>
<circle cx="379" cy="810" r="3" fill="#E3E4E9"/>
<circle cx="425" cy="810" r="3" fill="#E3E4E9"/>
<circle cx="471" cy="810" r="3" fill="#E3E4E9"/>
<circle cx="517" cy="810" r="3" fill="#E3E4E9"/>
<circle cx="563" cy="810" r="3" fill="#E3E4E9"/>
<circle cx="609" cy="810" r="3" fill="#E3E4E9"/>
<circle cx="655" cy="810" r="3" fill="#E3E4E9"/>
<circle cx="701" cy="810" r="3" fill="#E3E4E9"/>
<circle cx="747" cy="810" r="3" fill="#E3E4E9"/>
<circle cx="793" cy="810" r="3" fill="#E3E4E9"/>
<circle cx="839" cy="810" r="3" fill="#E3E4E9"/>
<circle cx="885" cy="810" r="3" fill="#E3E4E9"/>
<circle cx="931" cy="810" r="3" fill="#E3E4E9"/>
<circle cx="977" cy="810" r="3" fill="#E3E4E9"/>
<circle cx="1023" cy="810" r="3" fill="#E3E4E9"/>
<circle cx="1069" cy="810" r="3" fill="#E3E4E9"/>
<circle cx="1115" cy="810" r="3" fill="#E3E4E9"/>
<circle cx="1161" cy="810" r="3" fill="#E3E4E9"/>
<circle cx="1207" cy="810" r="3" fill="#E3E4E9"/>
<circle cx="1253" cy="810" r="3" fill="#E3E4E9"/>
<circle cx="1299" cy="810" r="3" fill="#E3E4E9"/>
<circle cx="1345" cy="810" r="3" fill="#E3E4E9"/>
<circle cx="1391" cy="810" r="3" fill="#E3E4E9"/>
<circle cx="1437" cy="810" r="3" fill="#E3E4E9"/>
<circle cx="1483" cy="810" r="3" fill="#E3E4E9"/>
</g>
<g clip-path="url(#clip14_388_2)">
<circle cx="11" cy="870" r="3" fill="#E3E4E9"/>
<circle cx="57" cy="870" r="3" fill="#E3E4E9"/>
<circle cx="103" cy="870" r="3" fill="#E3E4E9"/>
<circle cx="149" cy="870" r="3" fill="#E3E4E9"/>
<circle cx="195" cy="870" r="3" fill="#E3E4E9"/>
<circle cx="241" cy="870" r="3" fill="#E3E4E9"/>
<circle cx="287" cy="870" r="3" fill="#E3E4E9"/>
<circle cx="333" cy="870" r="3" fill="#E3E4E9"/>
<circle cx="379" cy="870" r="3" fill="#E3E4E9"/>
<circle cx="425" cy="870" r="3" fill="#E3E4E9"/>
<circle cx="471" cy="870" r="3" fill="#E3E4E9"/>
<circle cx="517" cy="870" r="3" fill="#E3E4E9"/>
<circle cx="563" cy="870" r="3" fill="#E3E4E9"/>
<circle cx="609" cy="870" r="3" fill="#E3E4E9"/>
<circle cx="655" cy="870" r="3" fill="#E3E4E9"/>
<circle cx="701" cy="870" r="3" fill="#E3E4E9"/>
<circle cx="747" cy="870" r="3" fill="#E3E4E9"/>
<circle cx="793" cy="870" r="3" fill="#E3E4E9"/>
<circle cx="839" cy="870" r="3" fill="#E3E4E9"/>
<circle cx="885" cy="870" r="3" fill="#E3E4E9"/>
<circle cx="931" cy="870" r="3" fill="#E3E4E9"/>
<circle cx="977" cy="870" r="3" fill="#E3E4E9"/>
<circle cx="1023" cy="870" r="3" fill="#E3E4E9"/>
<circle cx="1069" cy="870" r="3" fill="#E3E4E9"/>
<circle cx="1115" cy="870" r="3" fill="#E3E4E9"/>
<circle cx="1161" cy="870" r="3" fill="#E3E4E9"/>
<circle cx="1207" cy="870" r="3" fill="#E3E4E9"/>
<circle cx="1253" cy="870" r="3" fill="#E3E4E9"/>
<circle cx="1299" cy="870" r="3" fill="#E3E4E9"/>
<circle cx="1345" cy="870" r="3" fill="#E3E4E9"/>
<circle cx="1391" cy="870" r="3" fill="#E3E4E9"/>
<circle cx="1437" cy="870" r="3" fill="#E3E4E9"/>
<circle cx="1483" cy="870" r="3" fill="#E3E4E9"/>
</g>
<g clip-path="url(#clip15_388_2)">
<circle cx="11" cy="750" r="3" fill="#E3E4E9"/>
<circle cx="57" cy="750" r="3" fill="#E3E4E9"/>
<circle cx="103" cy="750" r="3" fill="#E3E4E9"/>
<circle cx="149" cy="750" r="3" fill="#E3E4E9"/>
<circle cx="195" cy="750" r="3" fill="#E3E4E9"/>
<circle cx="241" cy="750" r="3" fill="#E3E4E9"/>
<circle cx="287" cy="750" r="3" fill="#E3E4E9"/>
<circle cx="333" cy="750" r="3" fill="#E3E4E9"/>
<circle cx="379" cy="750" r="3" fill="#E3E4E9"/>
<circle cx="425" cy="750" r="3" fill="#E3E4E9"/>
<circle cx="471" cy="750" r="3" fill="#E3E4E9"/>
<circle cx="517" cy="750" r="3" fill="#E3E4E9"/>
<circle cx="563" cy="750" r="3" fill="#E3E4E9"/>
<circle cx="609" cy="750" r="3" fill="#E3E4E9"/>
<circle cx="655" cy="750" r="3" fill="#E3E4E9"/>
<circle cx="701" cy="750" r="3" fill="#E3E4E9"/>
<circle cx="747" cy="750" r="3" fill="#E3E4E9"/>
<circle cx="793" cy="750" r="3" fill="#E3E4E9"/>
<circle cx="839" cy="750" r="3" fill="#E3E4E9"/>
<circle cx="885" cy="750" r="3" fill="#E3E4E9"/>
<circle cx="931" cy="750" r="3" fill="#E3E4E9"/>
<circle cx="977" cy="750" r="3" fill="#E3E4E9"/>
<circle cx="1023" cy="750" r="3" fill="#E3E4E9"/>
<circle cx="1069" cy="750" r="3" fill="#E3E4E9"/>
<circle cx="1115" cy="750" r="3" fill="#E3E4E9"/>
<circle cx="1161" cy="750" r="3" fill="#E3E4E9"/>
<circle cx="1207" cy="750" r="3" fill="#E3E4E9"/>
<circle cx="1253" cy="750" r="3" fill="#E3E4E9"/>
<circle cx="1299" cy="750" r="3" fill="#E3E4E9"/>
<circle cx="1345" cy="750" r="3" fill="#E3E4E9"/>
<circle cx="1391" cy="750" r="3" fill="#E3E4E9"/>
<circle cx="1437" cy="750" r="3" fill="#E3E4E9"/>
<circle cx="1483" cy="750" r="3" fill="#E3E4E9"/>
</g>
<g clip-path="url(#clip16_388_2)">
<circle cx="11" cy="810" r="3" fill="#E3E4E9"/>
<circle cx="57" cy="810" r="3" fill="#E3E4E9"/>
<circle cx="103" cy="810" r="3" fill="#E3E4E9"/>
<circle cx="149" cy="810" r="3" fill="#E3E4E9"/>
<circle cx="195" cy="810" r="3" fill="#E3E4E9"/>
<circle cx="241" cy="810" r="3" fill="#E3E4E9"/>
<circle cx="287" cy="810" r="3" fill="#E3E4E9"/>
<circle cx="333" cy="810" r="3" fill="#E3E4E9"/>
<circle cx="379" cy="810" r="3" fill="#E3E4E9"/>
<circle cx="425" cy="810" r="3" fill="#E3E4E9"/>
<circle cx="471" cy="810" r="3" fill="#E3E4E9"/>
<circle cx="517" cy="810" r="3" fill="#E3E4E9"/>
<circle cx="563" cy="810" r="3" fill="#E3E4E9"/>
<circle cx="609" cy="810" r="3" fill="#E3E4E9"/>
<circle cx="655" cy="810" r="3" fill="#E3E4E9"/>
<circle cx="701" cy="810" r="3" fill="#E3E4E9"/>
<circle cx="747" cy="810" r="3" fill="#E3E4E9"/>
<circle cx="793" cy="810" r="3" fill="#E3E4E9"/>
<circle cx="839" cy="810" r="3" fill="#E3E4E9"/>
<circle cx="885" cy="810" r="3" fill="#E3E4E9"/>
<circle cx="931" cy="810" r="3" fill="#E3E4E9"/>
<circle cx="977" cy="810" r="3" fill="#E3E4E9"/>
<circle cx="1023" cy="810" r="3" fill="#E3E4E9"/>
<circle cx="1069" cy="810" r="3" fill="#E3E4E9"/>
<circle cx="1115" cy="810" r="3" fill="#E3E4E9"/>
<circle cx="1161" cy="810" r="3" fill="#E3E4E9"/>
<circle cx="1207" cy="810" r="3" fill="#E3E4E9"/>
<circle cx="1253" cy="810" r="3" fill="#E3E4E9"/>
<circle cx="1299" cy="810" r="3" fill="#E3E4E9"/>
<circle cx="1345" cy="810" r="3" fill="#E3E4E9"/>
<circle cx="1391" cy="810" r="3" fill="#E3E4E9"/>
<circle cx="1437" cy="810" r="3" fill="#E3E4E9"/>
<circle cx="1483" cy="810" r="3" fill="#E3E4E9"/>
</g>
<g clip-path="url(#clip17_388_2)">
<circle cx="11" cy="870" r="3" fill="#E3E4E9"/>
<circle cx="57" cy="870" r="3" fill="#E3E4E9"/>
<circle cx="103" cy="870" r="3" fill="#E3E4E9"/>
<circle cx="149" cy="870" r="3" fill="#E3E4E9"/>
<circle cx="195" cy="870" r="3" fill="#E3E4E9"/>
<circle cx="241" cy="870" r="3" fill="#E3E4E9"/>
<circle cx="287" cy="870" r="3" fill="#E3E4E9"/>
<circle cx="333" cy="870" r="3" fill="#E3E4E9"/>
<circle cx="379" cy="870" r="3" fill="#E3E4E9"/>
<circle cx="425" cy="870" r="3" fill="#E3E4E9"/>
<circle cx="471" cy="870" r="3" fill="#E3E4E9"/>
<circle cx="517" cy="870" r="3" fill="#E3E4E9"/>
<circle cx="563" cy="870" r="3" fill="#E3E4E9"/>
<circle cx="609" cy="870" r="3" fill="#E3E4E9"/>
<circle cx="655" cy="870" r="3" fill="#E3E4E9"/>
<circle cx="701" cy="870" r="3" fill="#E3E4E9"/>
<circle cx="747" cy="870" r="3" fill="#E3E4E9"/>
<circle cx="793" cy="870" r="3" fill="#E3E4E9"/>
<circle cx="839" cy="870" r="3" fill="#E3E4E9"/>
<circle cx="885" cy="870" r="3" fill="#E3E4E9"/>
<circle cx="931" cy="870" r="3" fill="#E3E4E9"/>
<circle cx="977" cy="870" r="3" fill="#E3E4E9"/>
<circle cx="1023" cy="870" r="3" fill="#E3E4E9"/>
<circle cx="1069" cy="870" r="3" fill="#E3E4E9"/>
<circle cx="1115" cy="870" r="3" fill="#E3E4E9"/>
<circle cx="1161" cy="870" r="3" fill="#E3E4E9"/>
<circle cx="1207" cy="870" r="3" fill="#E3E4E9"/>
<circle cx="1253" cy="870" r="3" fill="#E3E4E9"/>
<circle cx="1299" cy="870" r="3" fill="#E3E4E9"/>
<circle cx="1345" cy="870" r="3" fill="#E3E4E9"/>
<circle cx="1391" cy="870" r="3" fill="#E3E4E9"/>
<circle cx="1437" cy="870" r="3" fill="#E3E4E9"/>
<circle cx="1483" cy="870" r="3" fill="#E3E4E9"/>
</g>
<g clip-path="url(#clip18_388_2)">
<circle cx="11" cy="930" r="3" fill="#E3E4E9"/>
<circle cx="57" cy="930" r="3" fill="#E3E4E9"/>
<circle cx="103" cy="930" r="3" fill="#E3E4E9"/>
<circle cx="149" cy="930" r="3" fill="#E3E4E9"/>
<circle cx="195" cy="930" r="3" fill="#E3E4E9"/>
<circle cx="241" cy="930" r="3" fill="#E3E4E9"/>
<circle cx="287" cy="930" r="3" fill="#E3E4E9"/>
<circle cx="333" cy="930" r="3" fill="#E3E4E9"/>
<circle cx="379" cy="930" r="3" fill="#E3E4E9"/>
<circle cx="425" cy="930" r="3" fill="#E3E4E9"/>
<circle cx="471" cy="930" r="3" fill="#E3E4E9"/>
<circle cx="517" cy="930" r="3" fill="#E3E4E9"/>
<circle cx="563" cy="930" r="3" fill="#E3E4E9"/>
<circle cx="609" cy="930" r="3" fill="#E3E4E9"/>
<circle cx="655" cy="930" r="3" fill="#E3E4E9"/>
<circle cx="701" cy="930" r="3" fill="#E3E4E9"/>
<circle cx="747" cy="930" r="3" fill="#E3E4E9"/>
<circle cx="793" cy="930" r="3" fill="#E3E4E9"/>
<circle cx="839" cy="930" r="3" fill="#E3E4E9"/>
<circle cx="885" cy="930" r="3" fill="#E3E4E9"/>
<circle cx="931" cy="930" r="3" fill="#E3E4E9"/>
<circle cx="977" cy="930" r="3" fill="#E3E4E9"/>
<circle cx="1023" cy="930" r="3" fill="#E3E4E9"/>
<circle cx="1069" cy="930" r="3" fill="#E3E4E9"/>
<circle cx="1115" cy="930" r="3" fill="#E3E4E9"/>
<circle cx="1161" cy="930" r="3" fill="#E3E4E9"/>
<circle cx="1207" cy="930" r="3" fill="#E3E4E9"/>
<circle cx="1253" cy="930" r="3" fill="#E3E4E9"/>
<circle cx="1299" cy="930" r="3" fill="#E3E4E9"/>
<circle cx="1345" cy="930" r="3" fill="#E3E4E9"/>
<circle cx="1391" cy="930" r="3" fill="#E3E4E9"/>
<circle cx="1437" cy="930" r="3" fill="#E3E4E9"/>
<circle cx="1483" cy="930" r="3" fill="#E3E4E9"/>
</g>
<defs>
<clipPath id="clip0_388_2">
<rect width="1512" height="60" fill="white"/>
</clipPath>
<clipPath id="clip1_388_2">
<rect width="1512" height="60" fill="white" transform="translate(0 60)"/>
</clipPath>
<clipPath id="clip2_388_2">
<rect width="1512" height="60" fill="white" transform="translate(0 120)"/>
</clipPath>
<clipPath id="clip3_388_2">
<rect width="1512" height="60" fill="white" transform="translate(0 180)"/>
</clipPath>
<clipPath id="clip4_388_2">
<rect width="1512" height="60" fill="white" transform="translate(0 240)"/>
</clipPath>
<clipPath id="clip5_388_2">
<rect width="1512" height="60" fill="white" transform="translate(0 300)"/>
</clipPath>
<clipPath id="clip6_388_2">
<rect width="1512" height="60" fill="white" transform="translate(0 360)"/>
</clipPath>
<clipPath id="clip7_388_2">
<rect width="1512" height="60" fill="white" transform="translate(0 420)"/>
</clipPath>
<clipPath id="clip8_388_2">
<rect width="1512" height="60" fill="white" transform="translate(0 480)"/>
</clipPath>
<clipPath id="clip9_388_2">
<rect width="1512" height="60" fill="white" transform="translate(0 540)"/>
</clipPath>
<clipPath id="clip10_388_2">
<rect width="1512" height="60" fill="white" transform="translate(0 600)"/>
</clipPath>
<clipPath id="clip11_388_2">
<rect width="1512" height="60" fill="white" transform="translate(0 660)"/>
</clipPath>
<clipPath id="clip12_388_2">
<rect width="1512" height="60" fill="white" transform="translate(0 720)"/>
</clipPath>
<clipPath id="clip13_388_2">
<rect width="1512" height="60" fill="white" transform="translate(0 780)"/>
</clipPath>
<clipPath id="clip14_388_2">
<rect width="1512" height="60" fill="white" transform="translate(0 840)"/>
</clipPath>
<clipPath id="clip15_388_2">
<rect width="1512" height="60" fill="white" transform="translate(0 720)"/>
</clipPath>
<clipPath id="clip16_388_2">
<rect width="1512" height="60" fill="white" transform="translate(0 780)"/>
</clipPath>
<clipPath id="clip17_388_2">
<rect width="1512" height="60" fill="white" transform="translate(0 840)"/>
</clipPath>
<clipPath id="clip18_388_2">
<rect width="1512" height="60" fill="white" transform="translate(0 900)"/>
</clipPath>
</defs>
</svg>
